<svg width="65" height="64" viewBox="0 0 65 64" fill="none" xmlns="http://www.w3.org/2000/svg">
<path d="M37.4225 41.2305H12.8071V46.1535H37.4225V41.2305Z" fill="#FF8800" style="fill:#FF8800;fill:color(display-p3 1.0000 0.5333 0.0000);fill-opacity:1;"/>
<path d="M23.8848 49.8464V53.5387C23.8848 55.5695 25.5463 57.231 27.5771 57.231H43.5771C45.6078 57.231 47.2694 55.5695 47.2694 53.5387V35.0772V25.8464V19.0772M23.8848 32.6156V16.6156C23.8848 14.5849 25.5463 12.9233 27.5771 12.9233H35.5771H39.5771" stroke="#0000FF" style="stroke:#0000FF;stroke:color(display-p3 0.0000 0.0000 1.0000);stroke-opacity:1;" stroke-width="1.50667"/>
<path d="M34.3457 16.6152H36.8072" stroke="#0000FF" style="stroke:#0000FF;stroke:color(display-p3 0.0000 0.0000 1.0000);stroke-opacity:1;" stroke-width="1.50667" stroke-linecap="round"/>
<path fill-rule="evenodd" clip-rule="evenodd" d="M52.8068 14.1541C52.8068 18.2325 49.5006 21.5388 45.4222 21.5388C41.3438 21.5388 38.0376 18.2325 38.0376 14.1541C38.0376 10.0757 41.3438 6.76953 45.4222 6.76953C49.5006 6.76953 52.8068 10.0757 52.8068 14.1541ZM48.6159 12.7536C48.862 12.5193 48.8714 12.1297 48.637 11.8836C48.4027 11.6375 48.0132 11.628 47.767 11.8624L44.3169 15.1482L43.0798 13.957C42.835 13.7213 42.4455 13.7287 42.2097 13.9735C41.974 14.2183 41.9813 14.6079 42.2261 14.8436L43.8877 16.4436C44.125 16.6721 44.5003 16.6732 44.739 16.4459L48.6159 12.7536Z" fill="#FF8800" style="fill:#FF8800;fill:color(display-p3 1.0000 0.5333 0.0000);fill-opacity:1;"/>
<path d="M15.2687 32.6152H34.961C36.3148 32.6152 37.4225 33.7229 37.4225 35.0768V47.3845C37.4225 48.7383 36.3148 49.846 34.961 49.846H15.2687C13.9148 49.846 12.8071 48.7383 12.8071 47.3845V35.0768C12.8071 33.7229 13.8533 32.6152 15.2687 32.6152Z" stroke="#0000FF" style="stroke:#0000FF;stroke:color(display-p3 0.0000 0.0000 1.0000);stroke-opacity:1;" stroke-width="1.50667"/>
<path fill-rule="evenodd" clip-rule="evenodd" d="M31.8841 38.2772C31.5764 38.5849 31.1456 38.7079 30.6533 38.7079C29.6071 38.7079 28.8071 37.9079 28.8071 36.8618C28.8071 35.8156 29.6071 35.0156 30.6533 35.0156C31.1456 35.0156 31.5764 35.2002 31.8841 35.4464C32.1917 35.1387 32.6225 35.0156 33.1148 35.0156C34.161 35.0156 34.961 35.8156 34.961 36.8618C34.961 37.9079 34.161 38.7079 33.1148 38.7079C32.6225 38.7695 32.1917 38.5849 31.8841 38.2772Z" fill="#FF8800" style="fill:#FF8800;fill:color(display-p3 1.0000 0.5333 0.0000);fill-opacity:1;"/>
</svg>
