<svg width="65" height="64" viewBox="0 0 65 64" fill="none" xmlns="http://www.w3.org/2000/svg">
<path d="M27.8024 23.4555L22.9039 25.8678L16.0547 21.2155L16.9347 20.3847C17.6116 19.7447 18.6024 19.5663 19.4578 19.9294L20.1347 20.2186L27.8024 23.4555Z" fill="#FF8800" style="fill:#FF8800;fill:color(display-p3 1.0000 0.5333 0.0000);fill-opacity:1;"/>
<path d="M47.3772 19.5474C49.5249 21.5781 51.2049 24.0951 52.2449 26.9197C53.0203 29.0058 53.4388 31.2643 53.4388 33.6151V33.8181C53.3895 38.612 51.5926 42.9812 48.6634 46.3351C47.3526 47.8366 45.8142 49.1351 44.1034 50.1689V50.1751C43.0572 50.8089 41.9434 51.3443 40.7741 51.7689C38.9465 52.4458 36.9895 52.852 34.9526 52.9381C34.6695 52.9566 34.3803 52.9628 34.0911 52.9628C31.9865 52.9628 29.9618 52.6243 28.0665 52.0027C21.3772 49.8181 16.3003 44.0827 15.0449 37.0243" stroke="#0000FF" style="stroke:#0000FF;stroke:color(display-p3 0.0000 0.0000 1.0000);stroke-opacity:1;" stroke-width="1.50667" stroke-linecap="round" stroke-linejoin="round"/>
<path d="M23.0093 17.7507C26.1539 15.5599 29.9754 14.2676 34.0924 14.2676C39.2308 14.2676 43.9077 16.2737 47.3724 19.5476" stroke="#0000FF" style="stroke:#0000FF;stroke:color(display-p3 0.0000 0.0000 1.0000);stroke-opacity:1;" stroke-width="1.50667" stroke-linecap="round" stroke-linejoin="round"/>
<path d="M25.636 29.6523L16.8606 33.843L14.2637 31.9476L10.916 29.5107L12.5345 26.4399L18.8914 27.843L22.9037 25.8676L27.8022 23.4553L36.7006 19.0738C37.0452 18.9076 37.4022 18.8276 37.7591 18.8276C38.6268 18.8276 39.4576 19.2953 39.8822 20.1138C40.516 21.3199 40.0176 22.803 38.7929 23.3876L31.1191 27.043" stroke="#0000FF" style="stroke:#0000FF;stroke:color(display-p3 0.0000 0.0000 1.0000);stroke-opacity:1;" stroke-width="1.50667" stroke-linecap="round" stroke-linejoin="round"/>
<path d="M22.9039 25.8678L16.0547 21.2155L16.9347 20.3847C17.6116 19.7447 18.6024 19.5663 19.4578 19.9294L20.1347 20.2186L27.8024 23.4555" stroke="#0000FF" style="stroke:#0000FF;stroke:color(display-p3 0.0000 0.0000 1.0000);stroke-opacity:1;" stroke-width="1.50667" stroke-linecap="round" stroke-linejoin="round"/>
<path d="M25.6358 29.6525L24.7988 38.4832L25.4511 38.6555C26.4727 38.9386 27.5311 38.3479 27.8327 37.3386L31.0881 27.0309L31.8081 24.7417" stroke="#0000FF" style="stroke:#0000FF;stroke:color(display-p3 0.0000 0.0000 1.0000);stroke-opacity:1;" stroke-width="1.50667" stroke-linecap="round" stroke-linejoin="round"/>
<path d="M11.8884 33.6152C8.13451 36.5075 4.86067 42.8337 9.79605 46.2983C12.8053 48.4091 17.2361 48.2614 20.7314 48.0091" stroke="#0000FF" style="stroke:#0000FF;stroke:color(display-p3 0.0000 0.0000 1.0000);stroke-opacity:1;" stroke-width="1.50667" stroke-linecap="round" stroke-linejoin="round"/>
<path d="M52.2449 26.9199C51.6295 27.9476 48.8542 29.5107 48.4603 29.7076C47.7588 30.0645 46.8849 30.0768 45.1372 30.0953C43.3772 30.1138 43.008 29.9476 42.8295 29.8553C41.9495 29.3938 42.0849 28.8338 41.2418 28.3599C40.3249 27.8492 39.1434 27.9476 38.2572 28.3599C38.0049 28.483 37.0511 28.9445 36.5772 30.0461C36.0172 31.3261 36.3434 32.8953 37.1988 33.6522C37.6849 34.083 37.8695 33.8368 39.2665 34.6184C40.1034 35.0799 40.2265 35.2768 40.6634 35.2892C41.2726 35.3076 41.4326 34.9445 42.3988 34.8092C42.8234 34.7538 43.1434 34.7045 43.5003 34.8584C44.1526 35.1353 44.4049 35.8492 44.4665 36.0153C44.7926 36.9322 44.288 37.3261 44.5157 38.323C44.5649 38.5568 44.6018 38.5815 45.3342 39.8122C46.5218 41.8307 46.5957 42.0461 46.6326 42.3168C46.7495 43.1845 46.3926 43.4368 46.6757 44.1445C46.848 44.5568 47.0757 44.7353 47.6418 45.3015C48.0234 45.683 47.9434 45.5045 48.5588 46.243" stroke="#0000FF" style="stroke:#0000FF;stroke:color(display-p3 0.0000 0.0000 1.0000);stroke-opacity:1;" stroke-width="1.50667" stroke-linecap="round" stroke-linejoin="round"/>
<path d="M34.9525 52.9387C34.9586 52.9202 34.9586 52.9079 34.9648 52.8895C35.2233 51.9356 35.4879 50.6372 34.7556 49.8372C34.0048 49.0064 32.8233 49.1418 31.8879 49.5479C31.5125 49.7141 30.3617 50.6802 29.9371 50.391C29.3094 49.9664 29.6848 49.1479 28.9463 48.1756C28.294 47.3141 27.3771 46.951 27.1186 46.8649C25.9986 46.4587 25.5371 46.8833 25.0017 46.4218C24.4109 45.911 24.294 44.7787 24.7125 44.0895C25.0694 43.4987 25.5371 43.6956 26.2448 42.9941C26.9833 42.2618 26.7371 41.7818 27.3402 41.2464C27.8509 40.791 28.5894 40.7664 30.0356 40.7356C31.8756 40.6926 32.7925 40.6741 33.2479 41.0987C33.9986 41.7941 35.254 41.9418 35.2848 43.2218C35.3033 44.2556 35.1494 44.7541 35.5002 45.0495C36.0048 45.4679 36.774 45.3079 37.6171 45.0495C40.7433 44.0772 40.2633 49.7879 40.774 51.7695V51.7756" fill="#FF8800" style="fill:#FF8800;fill:color(display-p3 1.0000 0.5333 0.0000);fill-opacity:1;"/>
<path d="M34.9525 52.9387C34.9586 52.9202 34.9586 52.9079 34.9648 52.8895C35.2233 51.9356 35.4879 50.6372 34.7556 49.8372C34.0048 49.0064 32.8233 49.1418 31.8879 49.5479C31.5125 49.7141 30.3617 50.6802 29.9371 50.391C29.3094 49.9664 29.6848 49.1479 28.9463 48.1756C28.294 47.3141 27.3771 46.951 27.1186 46.8649C25.9986 46.4587 25.5371 46.8833 25.0017 46.4218C24.4109 45.911 24.294 44.7787 24.7125 44.0895C25.0694 43.4987 25.5371 43.6956 26.2448 42.9941C26.9833 42.2618 26.7371 41.7818 27.3402 41.2464C27.8509 40.791 28.5894 40.7664 30.0356 40.7356C31.8756 40.6926 32.7925 40.6741 33.2479 41.0987C33.9986 41.7941 35.254 41.9418 35.2848 43.2218C35.3033 44.2556 35.1494 44.7541 35.5002 45.0495C36.0048 45.4679 36.774 45.3079 37.6171 45.0495C40.7433 44.0772 40.2633 49.7879 40.774 51.7695V51.7756" stroke="#0000FF" style="stroke:#0000FF;stroke:color(display-p3 0.0000 0.0000 1.0000);stroke-opacity:1;" stroke-width="1.50667" stroke-linecap="round" stroke-linejoin="round"/>
<path d="M47.3719 17.0021C47.3719 14.335 45.21 12.1732 42.543 12.1732C45.21 12.1732 47.3719 10.0113 47.3719 7.34424C47.3719 10.0113 49.5337 12.1732 52.2008 12.1732C49.5337 12.1732 47.3719 14.335 47.3719 17.0021Z" fill="#FF8800" style="fill:#FF8800;fill:color(display-p3 1.0000 0.5333 0.0000);fill-opacity:1;"/>
<path d="M54.0907 22.5911C54.0907 20.5966 52.4735 18.9794 50.479 18.9794C52.4735 18.9794 54.0907 17.3621 54.0907 15.3677C54.0907 17.3621 55.7079 18.9794 57.7024 18.9794C55.7079 18.9794 54.0907 20.5966 54.0907 22.5911Z" fill="#FF8800" style="fill:#FF8800;fill:color(display-p3 1.0000 0.5333 0.0000);fill-opacity:1;"/>
</svg>
