<svg width="65" height="64" viewBox="0 0 65 64" fill="none" xmlns="http://www.w3.org/2000/svg">
<path d="M52.5617 26.8307V47.6307C52.5617 49.6615 50.9002 51.323 48.8694 51.323H11.5771C9.5463 51.323 7.88477 49.6615 7.88477 47.6307V18.0307C7.88477 15.9999 9.5463 14.3384 11.5771 14.3384H38.4694" stroke="#0000FF" style="stroke:#0000FF;stroke:color(display-p3 0.0000 0.0000 1.0000);stroke-opacity:1;" stroke-width="1.50667" stroke-miterlimit="10" stroke-linecap="round" stroke-linejoin="round"/>
<path d="M22.4697 54.7074H17.0543C16.6851 54.7074 16.439 54.4612 16.439 54.092V51.3228H23.0851V54.092C23.0851 54.4612 22.7774 54.7074 22.4697 54.7074Z" fill="#FF8800" style="fill:#FF8800;fill:color(display-p3 1.0000 0.5333 0.0000);fill-opacity:1;"/>
<path d="M43.3301 54.7074H37.9147C37.5455 54.7074 37.2993 54.4612 37.2993 54.092V51.3228H43.9455V54.092C43.9455 54.4612 43.6993 54.7074 43.3301 54.7074Z" fill="#FF8800" style="fill:#FF8800;fill:color(display-p3 1.0000 0.5333 0.0000);fill-opacity:1;"/>
<path d="M47.4542 30.892V44.3689C47.4542 45.415 46.6542 46.215 45.6081 46.215H14.7773C13.7312 46.215 12.9312 45.415 12.9312 44.3689V21.292C12.9312 20.2458 13.7312 19.4458 14.7773 19.4458H39.0235" stroke="#0000FF" style="stroke:#0000FF;stroke:color(display-p3 0.0000 0.0000 1.0000);stroke-opacity:1;" stroke-width="1.50667" stroke-miterlimit="10" stroke-linecap="round" stroke-linejoin="round"/>
<path d="M13.1157 31.0155H12.808C11.8849 31.0155 11.1465 30.277 11.1465 29.354V27.2001C11.1465 26.277 11.8849 25.5386 12.808 25.5386H13.1157C14.0388 25.5386 14.7773 26.277 14.7773 27.2001V29.354C14.7773 30.277 14.0388 31.0155 13.1157 31.0155Z" fill="#0000FF" style="fill:#0000FF;fill:color(display-p3 0.0000 0.0000 1.0000);fill-opacity:1;"/>
<path d="M13.1157 40.1229H12.808C11.8849 40.1229 11.1465 39.3845 11.1465 38.4614V36.3075C11.1465 35.3845 11.8849 34.646 12.808 34.646H13.1157C14.0388 34.646 14.7773 35.3845 14.7773 36.3075V38.4614C14.7773 39.3845 14.0388 40.1229 13.1157 40.1229Z" fill="#0000FF" style="fill:#0000FF;fill:color(display-p3 0.0000 0.0000 1.0000);fill-opacity:1;"/>
<path d="M47.4529 30.892C56.1914 27.3228 56.6222 14.4612 56.6222 14.4612L47.4529 9.23047L38.2837 14.4612C38.2837 14.3997 38.7145 27.2612 47.4529 30.892Z" fill="#FF8800" stroke="#0000FF" style="fill:#FF8800;fill:color(display-p3 1.0000 0.5333 0.0000);fill-opacity:1;stroke:#0000FF;stroke:color(display-p3 0.0000 0.0000 1.0000);stroke-opacity:1;" stroke-width="1.50667" stroke-miterlimit="10" stroke-linecap="round" stroke-linejoin="round"/>
<path d="M44.3149 20.1847L47.1457 23.0771L52.1303 17.4771" stroke="white" style="stroke:white;stroke-opacity:1;" stroke-width="1.50667" stroke-miterlimit="10" stroke-linecap="round" stroke-linejoin="round"/>
<path d="M34.8995 32.8002C34.8995 32.4309 35.1457 32.1848 35.5149 32.1848H37.9764C37.8534 30.4617 37.1764 28.9848 36.1303 27.754L34.4072 29.4771C34.2841 29.6002 34.1611 29.6618 33.9764 29.6618C33.7918 29.6618 33.6688 29.6002 33.5457 29.4771C33.2995 29.2309 33.2995 28.8617 33.5457 28.6156L35.2688 26.8925C34.038 25.8464 32.4995 25.1695 30.838 25.0464V27.5079C30.838 27.8772 30.5918 28.1233 30.2226 28.1233C29.9149 28.1233 29.6072 27.8772 29.6072 27.5079V25.0464C27.8841 25.1695 26.3457 25.8464 25.1764 26.8925L26.8995 28.6156C27.1457 28.8617 27.1457 29.2309 26.8995 29.4771C26.7764 29.6002 26.6534 29.6618 26.4688 29.6618C26.2841 29.6618 26.1611 29.6002 26.038 29.4771L24.3149 27.754C23.2688 28.9848 22.5918 30.5232 22.4688 32.1848H24.9303C25.2995 32.1848 25.5457 32.4309 25.5457 32.8002C25.5457 33.1694 25.2995 33.4156 24.9303 33.4156H22.4688C22.5918 35.1386 23.2688 36.6771 24.3149 37.8463L26.038 36.1233C26.2841 35.8772 26.6534 35.8772 26.8995 36.1233C27.1457 36.3695 27.1457 36.7386 26.8995 36.9848L25.1764 38.7079C26.4072 39.754 27.9457 40.4309 29.6072 40.554V38.0925C29.6072 37.7232 29.9149 37.4771 30.2226 37.4771C30.5918 37.4771 30.838 37.7232 30.838 38.0925V40.554C32.5611 40.4309 34.0995 39.754 35.2688 38.7079L33.5457 36.9848C33.2995 36.7386 33.2995 36.3695 33.5457 36.1233C33.7918 35.8772 34.1611 35.8772 34.4072 36.1233L36.1303 37.8463C37.1764 36.6156 37.8534 35.0771 37.9764 33.4156H35.5149C35.2072 33.4156 34.8995 33.1694 34.8995 32.8002ZM30.2226 34.6463C29.238 34.6463 28.3764 33.8463 28.3764 32.8002C28.3764 31.754 29.238 30.954 30.2226 30.954C31.2687 30.954 32.0687 31.754 32.0687 32.8002C32.0687 33.8463 31.2072 34.6463 30.2226 34.6463Z" fill="#FF8800" style="fill:#FF8800;fill:color(display-p3 1.0000 0.5333 0.0000);fill-opacity:1;"/>
</svg>
